<svg version="1.1" xmlns="http://www.w3.org/2000/svg" viewBox="0 0 818.566293872944 472.19983673095703" width="818.566293872944" height="472.19983673095703" filter="invert(93%) hue-rotate(180deg)">
  <!-- svg-source:excalidraw -->
  
  <defs>
    <style class="style-fonts">
      @font-face {
        font-family: "Virgil";
        src: url("https://excalidraw.com/Virgil.woff2");
      }
      @font-face {
        font-family: "Cascadia";
        src: url("https://excalidraw.com/Cascadia.woff2");
      }
      @font-face {
        font-family: "Assistant";
        src: url("https://excalidraw.com/Assistant-Regular.woff2");
      }
    </style>
    
  </defs>
  <rect x="0" y="0" width="818.566293872944" height="472.19983673095703" fill="#ffffff"></rect><g stroke-linecap="round" transform="translate(126.16626945888146 10) rotate(0 96.40000915527344 81.99999237060547)"><path d="M32 0 C72.97 -1.94, 119.28 -1.63, 160.8 0 M32 0 C75.5 0.06, 118.19 0.63, 160.8 0 M160.8 0 C182.74 0.49, 192.78 9.18, 192.8 32 M160.8 0 C183.36 -1.16, 193.28 9.9, 192.8 32 M192.8 32 C194.59 56.23, 193.46 79.64, 192.8 132 M192.8 32 C193.34 68.09, 193.22 104.6, 192.8 132 M192.8 132 C192.87 153.05, 180.2 165.8, 160.8 164 M192.8 132 C192.18 151.58, 181.93 166.04, 160.8 164 M160.8 164 C109.86 162.04, 62.93 163.21, 32 164 M160.8 164 C133.19 163.75, 103.6 165.34, 32 164 M32 164 C11.96 163.17, 1.2 152.8, 0 132 M32 164 C9.34 163.68, -1.02 153.64, 0 132 M0 132 C-0.66 97.68, -1.77 68.84, 0 32 M0 132 C-0.85 95.99, 0.29 59.04, 0 32 M0 32 C0.96 11.82, 11.94 -0.76, 32 0 M0 32 C-1.02 9.6, 9.38 -1.06, 32 0" stroke="#1e1e1e" stroke-width="2" fill="none"></path></g><g stroke-linecap="round"><g transform="translate(125.36625114833458 54) rotate(0 96 -0.40000152587890625)"><path d="M-0.25 0.3 C31.81 -0.11, 160.99 -1.25, 193.12 -1.32 M1.82 -0.59 C33.75 -0.32, 161.05 0.19, 192.77 -0.06" stroke="#1e1e1e" stroke-width="2" fill="none"></path></g></g><mask></mask><g stroke-linecap="round" transform="translate(114.29043808361024 197.3999252319336) rotate(0 120.39994812011722 132.39995574951172)"><path d="M32 0 C95.7 -1.66, 156.07 -0.47, 208.8 0 M32 0 C97.76 0.94, 162.58 1.23, 208.8 0 M208.8 0 C230.04 1.47, 239.53 10.74, 240.8 32 M208.8 0 C228.31 2.23, 241.78 11.4, 240.8 32 M240.8 32 C243.47 104.37, 242.62 173.7, 240.8 232.8 M240.8 32 C240.96 111.06, 240.91 188.26, 240.8 232.8 M240.8 232.8 C238.84 253.43, 231.14 263.24, 208.8 264.8 M240.8 232.8 C241.12 253.8, 229.9 265.11, 208.8 264.8 M208.8 264.8 C162.26 262.36, 113.27 263.21, 32 264.8 M208.8 264.8 C147.68 264.11, 85.99 262.91, 32 264.8 M32 264.8 C10.16 265.94, -1.54 254.02, 0 232.8 M32 264.8 C9.37 264.59, 1.09 253.51, 0 232.8 M0 232.8 C-0.59 177.39, -1.39 120.99, 0 32 M0 232.8 C-0.18 183.35, -0.59 132.77, 0 32 M0 32 C-1.54 10.93, 10.19 0.09, 32 0 M0 32 C1.84 10.22, 10.03 0.5, 32 0" stroke="#1e1e1e" stroke-width="2" fill="none"></path></g><g stroke-linecap="round"><g transform="translate(113.49041977306337 241.3999252319336) rotate(0 119.60000610351562 0)"><path d="M-0.33 0.15 C39.47 0.11, 199.54 0.95, 239.59 0.82 M1.7 -0.82 C41.31 -0.68, 199.19 -1.07, 238.84 -0.88" stroke="#1e1e1e" stroke-width="2" fill="none"></path></g></g><mask></mask><g transform="translate(188.56626335536583 18) rotate(0 22.339981079101562 12.5)"><text x="0" y="17.52" font-family="Virgil, Segoe UI Emoji" font-size="20px" fill="#1e1e1e" text-anchor="start" style="white-space: pre;" direction="ltr" dominant-baseline="alphabetic">User</text></g><g transform="translate(140.36625114833458 75.20002746582031) rotate(0 85.98994445800781 12.5)"><text x="0" y="17.52" font-family="Virgil, Segoe UI Emoji" font-size="20px" fill="#1e1e1e" text-anchor="start" style="white-space: pre;" direction="ltr" dominant-baseline="alphabetic">-E-Mail : Mail, PK</text></g><g transform="translate(137.9662572518502 118.99998474121094) rotate(0 79.92994689941406 12.5)"><text x="0" y="17.52" font-family="Virgil, Segoe UI Emoji" font-size="20px" fill="#1e1e1e" text-anchor="start" style="white-space: pre;" direction="ltr" dominant-baseline="alphabetic">-Name : VarChar</text></g><g transform="translate(201.16639152919396 205.19993591308594) rotate(0 27.759979248046875 12.5)"><text x="0" y="17.52" font-family="Virgil, Segoe UI Emoji" font-size="20px" fill="#1e1e1e" text-anchor="start" style="white-space: pre;" direction="ltr" dominant-baseline="alphabetic">Event</text></g><g transform="translate(121.16639152919396 261.7999267578125) rotate(0 63.749961853027344 25)"><text x="0" y="17.52" font-family="Virgil, Segoe UI Emoji" font-size="20px" fill="#1e1e1e" text-anchor="start" style="white-space: pre;" direction="ltr" dominant-baseline="alphabetic">-Id : Int, PK</text><text x="0" y="42.519999999999996" font-family="Virgil, Segoe UI Emoji" font-size="20px" fill="#1e1e1e" text-anchor="start" style="white-space: pre;" direction="ltr" dominant-baseline="alphabetic"></text></g><g transform="translate(121.96637932216271 289.99993896484375) rotate(0 79.92994689941406 12.5)"><text x="0" y="17.52" font-family="Virgil, Segoe UI Emoji" font-size="20px" fill="#1e1e1e" text-anchor="start" style="white-space: pre;" direction="ltr" dominant-baseline="alphabetic">-Name : VarChar</text></g><g transform="translate(117.56635490810021 317.1999206542969) rotate(0 94.49990844726562 12.5)"><text x="0" y="17.52" font-family="Virgil, Segoe UI Emoji" font-size="20px" fill="#1e1e1e" text-anchor="start" style="white-space: pre;" direction="ltr" dominant-baseline="alphabetic">-Description : Text</text></g><g transform="translate(117.96644035731896 339.1999206542969) rotate(0 112.8099136352539 12.5)"><text x="0" y="17.52" font-family="Virgil, Segoe UI Emoji" font-size="20px" fill="#1e1e1e" text-anchor="start" style="white-space: pre;" direction="ltr" dominant-baseline="alphabetic">-AdressName : VarChar</text></g><g transform="translate(117.36640373622521 364.1999206542969) rotate(0 117.14990997314453 37.5)"><text x="0" y="17.52" font-family="Virgil, Segoe UI Emoji" font-size="20px" fill="#1e1e1e" text-anchor="start" style="white-space: pre;" direction="ltr" dominant-baseline="alphabetic">-Longitude : Float32</text><text x="0" y="42.519999999999996" font-family="Virgil, Segoe UI Emoji" font-size="20px" fill="#1e1e1e" text-anchor="start" style="white-space: pre;" direction="ltr" dominant-baseline="alphabetic">-Lattitude : Float32</text><text x="0" y="67.52" font-family="Virgil, Segoe UI Emoji" font-size="20px" fill="#1e1e1e" text-anchor="start" style="white-space: pre;" direction="ltr" dominant-baseline="alphabetic">-Creator : User[E-Mail]</text></g><g stroke-linecap="round" transform="translate(510.1663304940377 17.199966430664062) rotate(0 149.19998168945312 86)"><path d="M32 0 C120.3 -0.16, 210.21 -0.64, 266.4 0 M32 0 C106.86 -2.03, 180.27 -1.32, 266.4 0 M266.4 0 C288.2 -0.22, 296.62 11.4, 298.4 32 M266.4 0 C288.38 0.14, 300.54 10.15, 298.4 32 M298.4 32 C297.53 60.12, 297.14 90.7, 298.4 140 M298.4 32 C297.75 71.31, 298.32 109.03, 298.4 140 M298.4 140 C296.86 160.72, 285.96 171.29, 266.4 172 M298.4 140 C299.21 162.48, 287.28 171, 266.4 172 M266.4 172 C185.86 168.86, 106.47 171.31, 32 172 M266.4 172 C189.87 170.89, 112.43 172.41, 32 172 M32 172 C9.3 171.12, 1.56 163.15, 0 140 M32 172 C9.27 172.4, 1.25 162.08, 0 140 M0 140 C0.47 102.93, -0.91 67.31, 0 32 M0 140 C-1.02 117.81, -1.6 97.16, 0 32 M0 32 C1.96 10.51, 12.03 -1.61, 32 0 M0 32 C-0.77 8.65, 12.36 -1.3, 32 0" stroke="#1e1e1e" stroke-width="2" fill="none"></path></g><g stroke-linecap="round"><g transform="translate(510.9663793221627 60.39997863769531) rotate(0 145.99996948242188 -0.4000091552734375)"><path d="M0.52 1.12 C49.18 1.19, 242.57 -0.1, 291.12 -0.33 M-0.67 0.66 C48.45 0.43, 244.76 -1.71, 293.38 -2.21" stroke="#1e1e1e" stroke-width="2" fill="none"></path></g></g><mask></mask><g transform="translate(552.9663182870065 27.599929809570312) rotate(0 60.779937744140625 12.5)"><text x="0" y="17.52" font-family="Virgil, Segoe UI Emoji" font-size="20px" fill="#1e1e1e" text-anchor="start" style="white-space: pre;" direction="ltr" dominant-baseline="alphabetic">Participates</text></g><g stroke-linecap="round"><g transform="translate(116.56614128505333 426.5835284058735) rotate(0 -47.99989318847656 -169.30637288473497)"><path d="M0.43 -0.78 C-17.3 -33.33, -107.16 -138.06, -105.6 -194.31 C-104.04 -250.55, -9.55 -314.1, 9.78 -338.24 M-0.8 1.43 C-18.77 -30.48, -108.2 -136.29, -106.54 -193.25 C-104.89 -250.22, -10.49 -316.2, 9.11 -340.38" stroke="#1e1e1e" stroke-width="2" fill="none"></path></g><g transform="translate(116.56614128505333 426.5835284058735) rotate(0 -47.99989318847656 -169.30637288473497)"><path d="M-2.02 -318 C0.59 -326.26, 4.43 -334.2, 9.11 -340.38 M-2.02 -318 C2.33 -324.48, 4.67 -333.63, 9.11 -340.38" stroke="#1e1e1e" stroke-width="2" fill="none"></path></g><g transform="translate(116.56614128505333 426.5835284058735) rotate(0 -47.99989318847656 -169.30637288473497)"><path d="M-13.81 -330.39 C-6.76 -334.14, 1.42 -337.52, 9.11 -340.38 M-13.81 -330.39 C-5.46 -332.71, 0.78 -337.75, 9.11 -340.38" stroke="#1e1e1e" stroke-width="2" fill="none"></path></g></g><mask></mask><g transform="translate(511.96631828700646 81.79994201660156) rotate(0 133.32989501953125 37.5)"><text x="0" y="17.52" font-family="Virgil, Segoe UI Emoji" font-size="20px" fill="#1e1e1e" text-anchor="start" style="white-space: pre;" direction="ltr" dominant-baseline="alphabetic">-Participant : User[E-Mail]</text><text x="0" y="42.519999999999996" font-family="Virgil, Segoe UI Emoji" font-size="20px" fill="#1e1e1e" text-anchor="start" style="white-space: pre;" direction="ltr" dominant-baseline="alphabetic"></text><text x="0" y="67.52" font-family="Virgil, Segoe UI Emoji" font-size="20px" fill="#1e1e1e" text-anchor="start" style="white-space: pre;" direction="ltr" dominant-baseline="alphabetic">-EventId : Event[Id]</text></g><g stroke-linecap="round"><g transform="translate(448.24509013771666 178.2059979008567) rotate(291.4495072751689 -32.30876227370203 -88.72106845123244)"><path d="M-0.29 0.22 C-6.89 -17.35, -28.01 -74.5, -38.89 -104.29 C-49.78 -134.09, -61.49 -166.29, -65.63 -178.53 M1.75 -0.71 C-5 -17.58, -28.58 -73.32, -39.42 -102.84 C-50.25 -132.35, -59.33 -165.45, -63.27 -177.79" stroke="#1e1e1e" stroke-width="2" fill="none"></path></g><g transform="translate(448.24509013771666 178.2059979008567) rotate(291.4495072751689 -32.30876227370203 -88.72106845123244)"><path d="M-48.3 -157.76 C-53.5 -163.64, -59.51 -173.88, -63.27 -177.79 M-48.3 -157.76 C-50.97 -161.44, -55.26 -166.72, -63.27 -177.79" stroke="#1e1e1e" stroke-width="2" fill="none"></path></g><g transform="translate(448.24509013771666 178.2059979008567) rotate(291.4495072751689 -32.30876227370203 -88.72106845123244)"><path d="M-64.67 -152.83 C-64.04 -160.44, -64.17 -172.45, -63.27 -177.79 M-64.67 -152.83 C-63.95 -157.49, -64.82 -163.8, -63.27 -177.79" stroke="#1e1e1e" stroke-width="2" fill="none"></path></g></g><mask></mask><g stroke-linecap="round"><g transform="translate(507.76624504481896 145.9999542236328) rotate(0 -123.20001220703125 65.20002746582031)"><path d="M0.13 1.17 C-15.52 19.33, -53.05 87.79, -94.24 109.44 C-135.43 131.08, -221.77 127.51, -247.02 131.05 M-1.26 0.74 C-16.96 18.98, -53.54 89.08, -94.69 110.47 C-135.83 131.85, -223.03 125.47, -248.11 129.06" stroke="#1e1e1e" stroke-width="2" fill="none"></path></g><g transform="translate(507.76624504481896 145.9999542236328) rotate(0 -123.20001220703125 65.20002746582031)"><path d="M-225 119.51 C-229.32 123.74, -239.19 123.72, -248.11 129.06 M-225 119.51 C-234 122.16, -241.91 126.1, -248.11 129.06" stroke="#1e1e1e" stroke-width="2" fill="none"></path></g><g transform="translate(507.76624504481896 145.9999542236328) rotate(0 -123.20001220703125 65.20002746582031)"><path d="M-224.28 136.6 C-228.86 136.16, -238.93 131.47, -248.11 129.06 M-224.28 136.6 C-233.62 133.19, -241.79 131.07, -248.11 129.06" stroke="#1e1e1e" stroke-width="2" fill="none"></path></g></g><mask></mask></svg>